<?xml version="1.0" encoding="UTF-8" standalone="no" ?>
<!DOCTYPE svg PUBLIC "-//W3C//DTD SVG 1.1//EN" "http://www.w3.org/Graphics/SVG/1.1/DTD/svg11.dtd">
<svg xmlns="http://www.w3.org/2000/svg" xmlns:xlink="http://www.w3.org/1999/xlink" version="1.1" width="800" height="800" viewBox="0 0 800 800" xml:space="preserve">
<desc>Created with Fabric.js 5.2.4</desc>
<defs>
</defs>
<g transform="matrix(1 0 0 1 400 400)" id="1490e19b-64c7-4439-8080-6f2770b8ebc4"  >
<rect style="stroke: none; stroke-width: 1; stroke-dasharray: none; stroke-linecap: butt; stroke-dashoffset: 0; stroke-linejoin: miter; stroke-miterlimit: 4; fill: rgb(255,255,255); fill-rule: nonzero; opacity: 1; visibility: hidden;" vector-effect="non-scaling-stroke"  x="-400" y="-400" rx="0" ry="0" width="800" height="800" />
</g>
<g transform="matrix(Infinity NaN NaN Infinity 0 0)" id="84bc76ae-f806-4646-8cb9-bb733346cb4a"  >
</g>
<g transform="matrix(0.16 0 0 0.16 399.57 399.56)"  >
<g style="" vector-effect="non-scaling-stroke"   >
		<g transform="matrix(1 0 0 1 0 0)"  >
<path style="stroke: none; stroke-width: 1; stroke-dasharray: none; stroke-linecap: butt; stroke-dashoffset: 0; stroke-linejoin: miter; stroke-miterlimit: 4; fill: rgb(254,255,254); fill-rule: evenodd; opacity: 1;" vector-effect="non-scaling-stroke"  transform=" translate(-2564.74, -2659.44)" d="M 4924.5 5160.5 C 3515.83 5160.5 2107.17 5160.5 698.5 5160.5 C 626.961 5149.47 581.128 5109.13 561 5039.5 C 554.994 5010.04 556.66 4981.04 566 4952.5 C 832.806 4414.22 1100.14 3876.22 1368 3338.5 C 1410.15 3252.19 1452.82 3166.19 1496 3080.5 C 1595.44 2878.95 1695.44 2677.62 1796 2476.5 C 1918.68 2228.47 2041.35 1980.47 2164 1732.5 C 2256.41 1547.35 2348.57 1362.02 2440.5 1176.5 C 2441.32 1175.61 2442.32 1175.28 2443.5 1175.5 C 2453.63 1141.05 2471.96 1111.89 2498.5 1088 C 2542.74 1052.54 2590.07 1047.88 2640.5 1074 C 2663.38 1088.55 2681.88 1107.38 2696 1130.5 C 3279.6 2291.38 3862.94 3452.38 4446 4613.5 C 4466 4652.17 4486 4690.83 4506 4729.5 C 4523.37 4780.51 4511.54 4823.34 4470.5 4858 C 4425.48 4887.36 4381.14 4886.36 4337.5 4855 C 4332.33 4849.83 4327.17 4844.67 4322 4839.5 C 4318 4833.5 4314 4827.5 4310 4821.5 C 4291.21 4782.71 4271.54 4744.38 4251 4706.5 C 3699.53 3608.22 3147.53 2510.22 2595 1412.5 C 2589.87 1411.81 2584.7 1411.14 2579.5 1410.5 C 2574.3 1411.14 2569.13 1411.81 2564 1412.5 C 2541.65 1457.2 2519.32 1501.86 2497 1546.5 C 1927.83 2691.51 1358.83 3836.18 790 4980.5 C 790.558 4987.02 792.058 4993.35 794.5 4999.5 C 2135.83 4999.67 3477.17 4999.5 4818.5 4999 C 4823.34 4994.81 4827.34 4989.98 4830.5 4984.5 C 4085.47 3495.1 3340.47 2005.77 2595.5 516.5 C 2589.63 514.934 2583.63 513.934 2577.5 513.5 C 2572.55 514.283 2567.55 514.783 2562.5 515 C 1816.65 2005.54 1071.48 3496.37 327 4987.5 C 306.458 5025.38 286.791 5063.71 268 5102.5 C 247.783 5137.36 217.616 5156.69 177.5 5160.5 C 173.833 5160.5 170.167 5160.5 166.5 5160.5 C 117.048 5155.01 84.2147 5128.68 68 5081.5 C 61.441 5057.41 62.7743 5033.75 72 5010.5 C 92 4971.83 112 4933.17 132 4894.5 C 908.984 3339.2 1685.98 1783.86 2463 228.5 C 2481.28 197.882 2507.11 176.382 2540.5 164 C 2584.32 151.497 2623.65 159.83 2658.5 189 C 2672.22 201.705 2684.05 215.872 2694 231.5 C 3481.92 1805.01 4269.59 3378.68 5057 4952.5 C 5076.94 5018.26 5062.1 5074.76 5012.5 5122 C 4986.86 5143.32 4957.53 5156.15 4924.5 5160.5 Z M 1274.5 4551.5 C 1296.91 4611.55 1319.24 4671.71 1341.5 4732 C 1297.5 4732.83 1253.5 4732.67 1209.5 4731.5 C 1231.18 4671.47 1252.84 4611.47 1274.5 4551.5 Z M 3895.5 4634.5 C 3942.06 4630.86 3970.22 4651.86 3980 4697.5 C 3981.35 4704.45 3982.18 4711.45 3982.5 4718.5 C 3932.83 4718.5 3883.17 4718.5 3833.5 4718.5 C 3834.77 4692.5 3844.1 4670 3861.5 4651 C 3871.46 4642.52 3882.79 4637.02 3895.5 4634.5 Z M 2384.5 4639.5 C 2431.14 4635.99 2460.98 4656.65 2474 4701.5 C 2481.33 4730.83 2481.33 4760.17 2474 4789.5 C 2458.91 4838.63 2426.07 4858.47 2375.5 4849 C 2354.39 4841.89 2338.89 4828.39 2329 4808.5 C 2317.5 4780.54 2313.84 4751.54 2318 4721.5 C 2320.31 4698.89 2328.64 4678.89 2343 4661.5 C 2354.57 4649.8 2368.4 4642.47 2384.5 4639.5 Z M 3505.5 4640.5 C 3543.36 4638.17 3570.19 4654.17 3586 4688.5 C 3596.43 4715.65 3599.43 4743.65 3595 4772.5 C 3592.07 4798.21 3580.9 4819.37 3561.5 4836 C 3539.69 4850.44 3516.36 4853.44 3491.5 4845 C 3464.91 4832.4 3448.75 4811.56 3443 4782.5 C 3436.7 4750.92 3438.7 4719.92 3449 4689.5 C 3459.44 4663.21 3478.28 4646.87 3505.5 4640.5 Z M 3206.5 4748.5 C 3209.89 4771.83 3207.39 4794.83 3199 4817.5 C 3187.05 4837.74 3169.55 4850.57 3146.5 4856 C 3131.48 4859.26 3116.48 4859.26 3101.5 4856 C 3079.24 4846.98 3069.07 4830.48 3071 4806.5 C 3073.72 4795.46 3079.88 4786.96 3089.5 4781 C 3095.26 4777.78 3101.26 4775.12 3107.5 4773 C 3129.78 4767.74 3152.11 4762.74 3174.5 4758 C 3185.47 4755.43 3196.13 4752.26 3206.5 4748.5 Z" stroke-linecap="round" />
</g>
		<g transform="matrix(1 0 0 1 -1287.69 2023.85)"  >
<path style="stroke: none; stroke-width: 1; stroke-dasharray: none; stroke-linecap: butt; stroke-dashoffset: 0; stroke-linejoin: miter; stroke-miterlimit: 4; fill: rgb(254,254,254); fill-rule: evenodd; opacity: 0.988;" vector-effect="non-scaling-stroke"  transform=" translate(-1277.05, -4683.29)" d="M 1262.5 4452.5 C 1288.81 4448.21 1310.31 4456.21 1327 4476.5 C 1332.5 4484.68 1337.17 4493.35 1341 4502.5 C 1384.78 4612.73 1429.11 4722.73 1474 4832.5 C 1479.38 4845.35 1482.88 4858.69 1484.5 4872.5 C 1482.78 4891.05 1473.45 4904.22 1456.5 4912 C 1437.05 4918.85 1420.55 4914.68 1407 4899.5 C 1401.81 4890.45 1397.14 4881.11 1393 4871.5 C 1383.83 4847.98 1374.66 4824.48 1365.5 4801 C 1305.5 4800.33 1245.5 4800.33 1185.5 4801 C 1174.18 4832.96 1161.68 4864.46 1148 4895.5 C 1143.4 4905.77 1135.56 4911.94 1124.5 4914 C 1101.68 4917.5 1084.51 4909.34 1073 4889.5 C 1069.29 4880.39 1068.62 4871.05 1071 4861.5 C 1072.26 4855.71 1073.93 4850.05 1076 4844.5 C 1121.33 4729.17 1166.67 4613.83 1212 4498.5 C 1218.5 4481.01 1229.67 4467.51 1245.5 4458 C 1251.14 4455.68 1256.8 4453.85 1262.5 4452.5 Z M 1274.5 4551.5 C 1252.84 4611.47 1231.18 4671.47 1209.5 4731.5 C 1253.5 4732.67 1297.5 4732.83 1341.5 4732 C 1319.24 4671.71 1296.91 4611.55 1274.5 4551.5 Z" stroke-linecap="round" />
</g>
		<g transform="matrix(1 0 0 1 -979.24 2023.93)"  >
<path style="stroke: none; stroke-width: 1; stroke-dasharray: none; stroke-linecap: butt; stroke-dashoffset: 0; stroke-linejoin: miter; stroke-miterlimit: 4; fill: rgb(254,254,254); fill-rule: evenodd; opacity: 0.987;" vector-effect="non-scaling-stroke"  transform=" translate(-1585.5, -4683.37)" d="M 1575.5 4452.5 C 1604.17 4449.07 1621.34 4461.4 1627 4489.5 C 1627.67 4618.83 1627.67 4748.17 1627 4877.5 C 1620.54 4907.83 1602.04 4919.66 1571.5 4913 C 1559.18 4908.01 1551.01 4899.18 1547 4886.5 C 1545.16 4880.3 1544.16 4873.97 1544 4867.5 C 1543.33 4744.83 1543.33 4622.17 1544 4499.5 C 1543.29 4482.44 1549.46 4468.6 1562.5 4458 C 1566.74 4455.65 1571.07 4453.82 1575.5 4452.5 Z" stroke-linecap="round" />
</g>
		<g transform="matrix(1 0 0 1 -810.24 2023.93)"  >
<path style="stroke: none; stroke-width: 1; stroke-dasharray: none; stroke-linecap: butt; stroke-dashoffset: 0; stroke-linejoin: miter; stroke-miterlimit: 4; fill: rgb(254,254,254); fill-rule: evenodd; opacity: 0.987;" vector-effect="non-scaling-stroke"  transform=" translate(-1754.5, -4683.37)" d="M 1744.5 4452.5 C 1773.17 4449.07 1790.34 4461.4 1796 4489.5 C 1796.67 4618.83 1796.67 4748.17 1796 4877.5 C 1789.54 4907.83 1771.04 4919.66 1740.5 4913 C 1728.18 4908.01 1720.01 4899.18 1716 4886.5 C 1714.16 4880.3 1713.16 4873.97 1713 4867.5 C 1712.33 4744.83 1712.33 4622.17 1713 4499.5 C 1712.29 4482.44 1718.46 4468.6 1731.5 4458 C 1735.74 4455.65 1740.07 4453.82 1744.5 4452.5 Z" stroke-linecap="round" />
</g>
		<g transform="matrix(1 0 0 1 952.76 2024.04)"  >
<path style="stroke: none; stroke-width: 1; stroke-dasharray: none; stroke-linecap: butt; stroke-dashoffset: 0; stroke-linejoin: miter; stroke-miterlimit: 4; fill: rgb(254,254,254); fill-rule: evenodd; opacity: 0.987;" vector-effect="non-scaling-stroke"  transform=" translate(-3517.51, -4683.48)" d="M 3631.5 4452.5 C 3658.48 4448.72 3674.65 4460.05 3680 4486.5 C 3680.67 4617.5 3680.67 4748.5 3680 4879.5 C 3673.36 4909.41 3655.2 4920.24 3625.5 4912 C 3613.59 4906.08 3606.09 4896.58 3603 4883.5 C 3601.98 4876.2 3601.31 4868.87 3601 4861.5 C 3585.14 4880 3566.31 4894.5 3544.5 4905 C 3493.22 4924.2 3446.89 4916.2 3405.5 4881 C 3377.84 4852.09 3361.68 4817.59 3357 4777.5 C 3351.07 4735.24 3355.73 4694.24 3371 4654.5 C 3400.27 4596.77 3447.44 4571.27 3512.5 4578 C 3534.98 4580.16 3555.31 4587.82 3573.5 4601 C 3583.32 4608.82 3592.49 4617.32 3601 4626.5 C 3601.04 4579.81 3601.7 4533.14 3603 4486.5 C 3605.29 4468.84 3614.79 4457.5 3631.5 4452.5 Z M 3505.5 4640.5 C 3478.28 4646.87 3459.44 4663.21 3449 4689.5 C 3438.7 4719.92 3436.7 4750.92 3443 4782.5 C 3448.75 4811.56 3464.91 4832.4 3491.5 4845 C 3516.36 4853.44 3539.69 4850.44 3561.5 4836 C 3580.9 4819.37 3592.07 4798.21 3595 4772.5 C 3599.43 4743.65 3596.43 4715.65 3586 4688.5 C 3570.19 4654.17 3543.36 4638.17 3505.5 4640.5 Z" stroke-linecap="round" />
</g>
		<g transform="matrix(1 0 0 1 -541.56 2084.95)"  >
<path style="stroke: none; stroke-width: 1; stroke-dasharray: none; stroke-linecap: butt; stroke-dashoffset: 0; stroke-linejoin: miter; stroke-miterlimit: 4; fill: rgb(254,254,254); fill-rule: evenodd; opacity: 0.983;" vector-effect="non-scaling-stroke"  transform=" translate(-2023.19, -4744.39)" d="M 2010.5 4575.5 C 2057.53 4570.75 2100.19 4581.92 2138.5 4609 C 2155.74 4622.57 2167.91 4639.74 2175 4660.5 C 2180.01 4685.13 2170.51 4700.97 2146.5 4708 C 2138.16 4709.32 2130.16 4708.32 2122.5 4705 C 2118.37 4701.87 2114.53 4698.37 2111 4694.5 C 2102.15 4680.99 2091.98 4668.49 2080.5 4657 C 2062.32 4642.62 2041.65 4637.29 2018.5 4641 C 1989.42 4647.41 1969.59 4664.58 1959 4692.5 C 1951.08 4715.89 1948.41 4739.89 1951 4764.5 C 1953.05 4793.1 1964.55 4816.94 1985.5 4836 C 2008.36 4851.09 2033.02 4854.76 2059.5 4847 C 2073.2 4841.97 2084.7 4833.8 2094 4822.5 C 2101.5 4812.18 2108.5 4801.51 2115 4790.5 C 2129.19 4772.94 2146.02 4769.77 2165.5 4781 C 2179.05 4792.64 2183.55 4807.14 2179 4824.5 C 2172.85 4847.3 2160.35 4865.8 2141.5 4880 C 2114.74 4899.48 2084.74 4910.48 2051.5 4913 C 2012.1 4917.47 1974.76 4910.8 1939.5 4893 C 1900.22 4868.68 1876.72 4833.51 1869 4787.5 C 1861.85 4745.25 1866.18 4704.25 1882 4664.5 C 1908 4610.73 1950.84 4581.07 2010.5 4575.5 Z" stroke-linecap="round" />
</g>
		<g transform="matrix(1 0 0 1 581.28 2085.66)"  >
<path style="stroke: none; stroke-width: 1; stroke-dasharray: none; stroke-linecap: butt; stroke-dashoffset: 0; stroke-linejoin: miter; stroke-miterlimit: 4; fill: rgb(254,254,254); fill-rule: evenodd; opacity: 0.983;" vector-effect="non-scaling-stroke"  transform=" translate(-3146.02, -4745.09)" d="M 3121.5 4575.5 C 3139.5 4575.33 3157.5 4575.5 3175.5 4576 C 3197.33 4577.04 3218.33 4581.71 3238.5 4590 C 3253.46 4596.96 3265.29 4607.46 3274 4621.5 C 3282.41 4637.13 3287.41 4653.79 3289 4671.5 C 3290.28 4718.81 3290.95 4766.15 3291 4813.5 C 3291.68 4819.88 3292.68 4826.22 3294 4832.5 C 3297.98 4846.42 3301.65 4860.42 3305 4874.5 C 3306.74 4888.85 3301.58 4900.02 3289.5 4908 C 3267.77 4919.9 3249.27 4916.06 3234 4896.5 C 3226.91 4887.31 3220.08 4877.97 3213.5 4868.5 C 3193.36 4884.91 3171.02 4897.75 3146.5 4907 C 3116.41 4915.74 3086.08 4916.74 3055.5 4910 C 3003.37 4891.85 2980.87 4855.35 2988 4800.5 C 2994.17 4775 3008.67 4755.83 3031.5 4743 C 3040.16 4738.5 3049.16 4734.84 3058.5 4732 C 3108.89 4722.07 3158.89 4710.57 3208.5 4697.5 C 3208.23 4680.75 3204.06 4665.08 3196 4650.5 C 3187.41 4640.96 3176.57 4635.79 3163.5 4635 C 3144.92 4633.39 3126.59 4634.72 3108.5 4639 C 3096.5 4643.93 3086.33 4651.43 3078 4661.5 C 3071 4671.83 3064 4682.17 3057 4692.5 C 3051.02 4697.07 3044.18 4699.07 3036.5 4698.5 C 3015.12 4697.95 3003.12 4687.11 3000.5 4666 C 3002.39 4641.88 3012.73 4622.21 3031.5 4607 C 3058.62 4588.24 3088.62 4577.74 3121.5 4575.5 Z M 3206.5 4748.5 C 3196.13 4752.26 3185.47 4755.43 3174.5 4758 C 3152.11 4762.74 3129.78 4767.74 3107.5 4773 C 3101.26 4775.12 3095.26 4777.78 3089.5 4781 C 3079.88 4786.96 3073.72 4795.46 3071 4806.5 C 3069.07 4830.48 3079.24 4846.98 3101.5 4856 C 3116.48 4859.26 3131.48 4859.26 3146.5 4856 C 3169.55 4850.57 3187.05 4837.74 3199 4817.5 C 3207.39 4794.83 3209.89 4771.83 3206.5 4748.5 Z" stroke-linecap="round" />
</g>
		<g transform="matrix(1 0 0 1 1341.03 2085.4)"  >
<path style="stroke: none; stroke-width: 1; stroke-dasharray: none; stroke-linecap: butt; stroke-dashoffset: 0; stroke-linejoin: miter; stroke-miterlimit: 4; fill: rgb(254,254,254); fill-rule: evenodd; opacity: 0.985;" vector-effect="non-scaling-stroke"  transform=" translate(-3905.77, -4744.84)" d="M 3889.5 4575.5 C 3924.06 4572.13 3957.06 4577.63 3988.5 4592 C 4036.28 4618.85 4061.61 4659.85 4064.5 4715 C 4064.71 4727 4061.87 4738.17 4056 4748.5 C 4050.52 4754.83 4043.69 4758.99 4035.5 4761 C 4028.62 4762.98 4021.62 4764.31 4014.5 4765 C 3954.17 4765.5 3893.83 4765.67 3833.5 4765.5 C 3832.87 4796.39 3843.87 4822.23 3866.5 4843 C 3888.69 4858.63 3913.02 4862.97 3939.5 4856 C 3955.48 4850.85 3969.82 4842.85 3982.5 4832 C 3992.5 4822.67 4002.5 4813.33 4012.5 4804 C 4028.26 4796.34 4042.42 4798.5 4055 4810.5 C 4059.45 4818.77 4060.45 4827.43 4058 4836.5 C 4052.14 4854.03 4041.97 4868.53 4027.5 4880 C 4001.25 4899.95 3971.58 4911.28 3938.5 4914 C 3904.11 4917.43 3870.78 4913.1 3838.5 4901 C 3787.8 4877.18 3758.3 4837.35 3750 4781.5 C 3742.39 4734.46 3749.39 4689.79 3771 4647.5 C 3792.56 4611.97 3823.73 4589.47 3864.5 4580 C 3872.95 4578.35 3881.28 4576.85 3889.5 4575.5 Z M 3895.5 4634.5 C 3882.79 4637.02 3871.46 4642.52 3861.5 4651 C 3844.1 4670 3834.77 4692.5 3833.5 4718.5 C 3883.17 4718.5 3932.83 4718.5 3982.5 4718.5 C 3982.18 4711.45 3981.35 4704.45 3980 4697.5 C 3970.22 4651.86 3942.06 4630.86 3895.5 4634.5 Z" stroke-linecap="round" />
</g>
		<g transform="matrix(1 0 0 1 -166.79 2086.03)"  >
<path style="stroke: none; stroke-width: 1; stroke-dasharray: none; stroke-linecap: butt; stroke-dashoffset: 0; stroke-linejoin: miter; stroke-miterlimit: 4; fill: rgb(254,254,254); fill-rule: evenodd; opacity: 0.985;" vector-effect="non-scaling-stroke"  transform=" translate(-2397.96, -4745.47)" d="M 2376.5 4576.5 C 2417.05 4572.51 2455.05 4580.34 2490.5 4600 C 2532.2 4627.51 2556.03 4666.34 2562 4716.5 C 2566.63 4752.2 2562.63 4786.87 2550 4820.5 C 2526.28 4873.65 2485.44 4904.48 2427.5 4913 C 2380.07 4920.38 2336.4 4911.05 2296.5 4885 C 2262.31 4858.81 2241.81 4824.31 2235 4781.5 C 2228.61 4742.35 2232.61 4704.35 2247 4667.5 C 2265.11 4626.72 2295.27 4599.22 2337.5 4585 C 2350.4 4581.06 2363.4 4578.22 2376.5 4576.5 Z M 2384.5 4639.5 C 2368.4 4642.47 2354.57 4649.8 2343 4661.5 C 2328.64 4678.89 2320.31 4698.89 2318 4721.5 C 2313.84 4751.54 2317.5 4780.54 2329 4808.5 C 2338.89 4828.39 2354.39 4841.89 2375.5 4849 C 2426.07 4858.47 2458.91 4838.63 2474 4789.5 C 2481.33 4760.17 2481.33 4730.83 2474 4701.5 C 2460.98 4656.65 2431.14 4635.99 2384.5 4639.5 Z" stroke-linecap="round" />
</g>
		<g transform="matrix(1 0 0 1 209.26 2085.73)"  >
<path style="stroke: none; stroke-width: 1; stroke-dasharray: none; stroke-linecap: butt; stroke-dashoffset: 0; stroke-linejoin: miter; stroke-miterlimit: 4; fill: rgb(254,254,254); fill-rule: evenodd; opacity: 0.984;" vector-effect="non-scaling-stroke"  transform=" translate(-2774, -4745.16)" d="M 2654.5 4576.5 C 2678.23 4572.93 2694.06 4582.27 2702 4604.5 C 2703.8 4612.73 2704.8 4621.06 2705 4629.5 C 2736.03 4588.7 2777.2 4571.2 2828.5 4577 C 2879.44 4584.27 2909.94 4613.11 2920 4663.5 C 2920.93 4671.48 2921.6 4679.48 2922 4687.5 C 2922.67 4749.17 2922.67 4810.83 2922 4872.5 C 2918.88 4903.81 2901.72 4917.64 2870.5 4914 C 2858.38 4910.87 2849.54 4903.71 2844 4892.5 C 2841.23 4885.76 2839.56 4878.76 2839 4871.5 C 2838.67 4816.5 2838.33 4761.5 2838 4706.5 C 2837.41 4689.46 2833.07 4673.46 2825 4658.5 C 2813.87 4645.94 2799.87 4640.28 2783 4641.5 C 2759.1 4641.61 2740.1 4651.28 2726 4670.5 C 2718.27 4681.64 2713.6 4693.97 2712 4707.5 C 2711.08 4716.15 2710.42 4724.81 2710 4733.5 C 2709.67 4780.17 2709.33 4826.83 2709 4873.5 C 2705.05 4903.78 2687.89 4917.28 2657.5 4914 C 2637.8 4907.82 2627.3 4894.32 2626 4873.5 C 2625.33 4786.83 2625.33 4700.17 2626 4613.5 C 2627.4 4594.61 2636.9 4582.28 2654.5 4576.5 Z" stroke-linecap="round" />
</g>
</g>
</g>
</svg>