<svg width="800" height="800" xmlns="http://www.w3.org/2000/svg">

 <g>
  <title>Layer 1</title>
  <g stroke="null" id="LOGO">
   <path stroke="null" id="svg_1" fill="#fff" d="m784.81574,312.97316l-1.11777,-2.85651l-108.21622,-282.42198a28.19252,28.19252 0 0 0 -11.13625,-13.41318a28.97909,28.97909 0 0 0 -33.11897,1.78014a28.97909,28.97909 0 0 0 -9.6045,14.57234l-73.06872,223.55302l-295.87656,0l-73.06872,-223.55302a28.39951,28.39951 0 0 0 -9.6045,-14.61374a28.97909,28.97909 0 0 0 -33.11897,-1.78014a28.44091,28.44091 0 0 0 -11.13625,13.41318l-108.42321,282.29778l-1.07637,2.85651a200.94932,200.94932 0 0 0 66.65192,232.24674l0.37259,0.28979l0.99357,0.70378l164.84965,123.45094l81.55545,61.72547l49.67845,37.50723a33.40876,33.40876 0 0 0 40.40514,0l49.67845,-37.50723l81.55545,-61.72547l165.84322,-124.19612l0.41399,-0.33119a201.03212,201.03212 0 0 0 66.56912,-231.99835z" class="cls-1"/>
  </g>
 </g>
</svg>