<?xml version="1.0" encoding="UTF-8" standalone="no" ?>
<!DOCTYPE svg PUBLIC "-//W3C//DTD SVG 1.1//EN" "http://www.w3.org/Graphics/SVG/1.1/DTD/svg11.dtd">
<svg xmlns="http://www.w3.org/2000/svg" xmlns:xlink="http://www.w3.org/1999/xlink" version="1.1" width="800" height="800" viewBox="0 0 800 800" xml:space="preserve">
<desc>Created with Fabric.js 5.2.4</desc>
<defs>
</defs>
<g transform="matrix(1 0 0 1 400 400)" id="a78597ca-ad0a-4e82-a1b6-6ea4102bd65d"  >
<rect style="stroke: none; stroke-width: 1; stroke-dasharray: none; stroke-linecap: butt; stroke-dashoffset: 0; stroke-linejoin: miter; stroke-miterlimit: 4; fill: rgb(255,255,255); fill-rule: nonzero; opacity: 1; visibility: hidden;" vector-effect="non-scaling-stroke"  x="-400" y="-400" rx="0" ry="0" width="800" height="800" />
</g>
<g transform="matrix(Infinity NaN NaN Infinity 0 0)" id="f99a589c-2525-498a-9c82-4bfdef77f2db"  >
</g>
<g transform="matrix(24.25 0 0 24.25 400.23 400.28)" id="b0eee12b-3265-484a-bff0-022f673ecf88"  >
<path style="stroke: rgb(0,0,0); stroke-width: 0; stroke-dasharray: none; stroke-linecap: butt; stroke-dashoffset: 0; stroke-linejoin: miter; stroke-miterlimit: 4; fill: rgb(255,255,255); fill-rule: nonzero; opacity: 1;" vector-effect="non-scaling-stroke"  transform=" translate(-16, -16)" d="M 21.469 23.907 L 17.874000000000002 27.38 C 17.250000000000004 28.005 16.39 28.265 15.442000000000002 28.265 C 14.494000000000003 28.265 13.635000000000002 28.005 13.010000000000002 27.38 L 7.234000000000002 21.567999999999998 C 6.614000000000002 20.942999999999998 6.2970000000000015 20.031 6.2970000000000015 19.083 C 6.2970000000000015 18.131 6.614000000000002 17.270999999999997 7.234000000000002 16.651 L 12.994000000000002 10.806999999999999 C 13.614 10.187999999999999 14.494000000000002 9.947999999999999 15.442000000000002 9.947999999999999 C 16.39 9.947999999999999 17.250000000000004 10.207999999999998 17.874000000000002 10.832999999999998 L 21.469 14.305999999999997 C 22.156000000000002 14.993999999999998 23.292 14.968999999999998 24.005000000000003 14.253999999999998 C 24.713 13.540999999999999 24.740000000000002 12.405999999999997 24.052000000000003 11.717999999999998 L 20.579000000000004 8.206999999999997 C 19.678000000000004 7.315999999999997 18.547000000000004 6.701999999999997 17.318000000000005 6.419999999999997 L 20.605000000000004 3.086999999999997 C 21.293000000000003 2.399999999999997 21.272000000000006 1.2639999999999971 20.558000000000003 0.550999999999997 C 19.844 -0.16200000000000303 18.709000000000003 -0.18400000000000294 18.022000000000002 0.49899999999999706 L 4.553000000000003 13.967999999999996 C 3.2460000000000027 15.279999999999996 2.5640000000000027 17.080999999999996 2.5640000000000027 19.080999999999996 C 2.5640000000000027 21.076999999999995 3.2470000000000026 22.940999999999995 4.553000000000003 24.248999999999995 L 10.350000000000001 30.060999999999996 C 11.657000000000002 31.367999999999995 13.465000000000002 31.997999999999998 15.465000000000002 31.997999999999998 C 17.46 31.997999999999998 19.266000000000002 31.314999999999998 20.574 30.008999999999997 L 24.053 26.487999999999996 C 24.741 25.804999999999996 24.714000000000002 24.670999999999996 24.001 23.956999999999997 C 23.288 23.243 22.152 23.217 21.470000000000002 23.904999999999998 z M 27.749 17.349 L 14.217999999999998 17.349 C 13.285999999999998 17.349 12.525999999999998 18.15 12.525999999999998 19.14 C 12.525999999999998 20.131 13.285999999999998 20.937 14.217999999999998 20.937 L 27.749 20.937 C 28.682 20.937 29.442 20.130000000000003 29.442 19.14 C 29.442 18.151 28.682 17.349 27.749 17.349 z" stroke-linecap="round" />
</g>
</svg>