<svg width="100" height="100" xmlns="http://www.w3.org/2000/svg" stroke-miterlimit="2" stroke-linejoin="round" clip-rule="evenodd" fill-rule="evenodd">

 <g>
  <title>Layer 1</title>
  <g stroke="null" id="svg_1" fill-rule="nonzero">
   <path stroke="null" id="svg_2" fill-opacity="0.2" d="m38.25763,98.89492c-1.64184,-0.38929 -3.0164,-1.29986 -4.93962,-3.27288c-3.21229,-3.29612 -5.8203,-4.66819 -10.35154,-5.44844c-4.7014,-0.8093 -6.7898,-2.55655 -8.04566,-6.73004c-1.55053,-5.15128 -3.17079,-7.61819 -6.73087,-10.24778c-4.03902,-2.9832 -5.07492,-5.61445 -4.08965,-10.38142c0.91305,-4.41503 0.5636,-7.55427 -1.29073,-11.5908c-2.21291,-4.81511 -1.93982,-7.38826 1.20274,-11.33432c2.8811,-3.61652 3.78502,-6.00789 4.21665,-11.14839c0.43495,-5.18864 1.8784,-7.31688 6.12991,-9.03923c3.54763,-1.43764 6.58312,-3.9336 8.26563,-6.79644c1.94563,-3.31106 2.22951,-3.6904 3.43557,-4.59017c1.94563,-1.45176 3.51858,-1.8535 6.51422,-1.66591c5.20441,0.32621 7.99337,-0.29882 11.48788,-2.57398c4.55614,-2.96576 7.31937,-2.96576 11.87551,0c3.49534,2.27516 6.2843,2.90019 11.48788,2.57398c4.92136,-0.30878 6.96909,0.98278 9.96889,6.28928c1.48662,2.62876 4.5246,5.18781 7.8506,6.61134c4.73626,2.02698 6.11248,3.87716 6.46193,8.6848c0.3785,5.2069 1.44595,8.11788 4.27392,11.65472c3.14921,3.93858 3.42395,6.51422 1.20938,11.33432c-1.8535,4.03653 -2.20378,7.17577 -1.29073,11.5908c0.9861,4.76697 -0.05063,7.39823 -4.08882,10.38142c-3.56008,2.62959 -5.18033,5.0965 -6.73087,10.24778c-1.25586,4.17349 -3.3451,5.92074 -8.04566,6.73004c-4.54203,0.78191 -7.1517,2.15813 -10.35237,5.45923c-3.54763,3.65803 -6.0909,4.2623 -11.05044,2.62212c-4.05645,-1.34053 -7.17992,-1.34634 -11.21977,-0.01992c-2.83047,0.92882 -4.33867,1.09068 -6.15398,0.65989z"/>
   <path stroke="null" id="svg_3" fill="#fff" d="m38.25763,97.92294c-1.64184,-0.39012 -3.0164,-1.30069 -4.93962,-3.27371c-3.21229,-3.29529 -5.8203,-4.66819 -10.35154,-5.44761c-4.7014,-0.8093 -6.7898,-2.55738 -8.04566,-6.73004c-1.55053,-5.15211 -3.17079,-7.61902 -6.73087,-10.24861c-4.03902,-2.9832 -5.07492,-5.61362 -4.08965,-10.38142c0.91305,-4.41503 0.5636,-7.55427 -1.29073,-11.5908c-2.21291,-4.81511 -1.93982,-7.38826 1.20274,-11.33349c2.8811,-3.61735 3.78502,-6.00789 4.21665,-11.14922c0.43495,-5.18864 1.8784,-7.31688 6.12991,-9.03923c3.54763,-1.43764 6.58312,-3.9336 8.26563,-6.79644c1.94563,-3.31106 2.22951,-3.6904 3.43557,-4.59017c1.94563,-1.45176 3.51858,-1.8535 6.51422,-1.66591c5.20441,0.32621 7.99337,-0.29882 11.48788,-2.57398c4.55614,-2.96576 7.31937,-2.96576 11.87551,0c3.49534,2.27516 6.2843,2.90019 11.48788,2.57398c4.92136,-0.30878 6.96909,0.98278 9.96889,6.28928c1.48662,2.62876 4.5246,5.18781 7.8506,6.61134c4.73626,2.02698 6.11248,3.87716 6.46193,8.6848c0.3785,5.2069 1.44595,8.11788 4.27392,11.65555c3.14921,3.93775 3.42395,6.51339 1.20938,11.33349c-1.8535,4.03653 -2.20378,7.17577 -1.29073,11.5908c0.9861,4.7678 -0.05063,7.39823 -4.08882,10.38142c-3.56008,2.62959 -5.18033,5.0965 -6.73087,10.24861c-1.25586,4.17266 -3.3451,5.92074 -8.04566,6.73004c-4.54203,0.78108 -7.1517,2.15813 -10.35237,5.4584c-3.54763,3.65886 -6.0909,4.2623 -11.05044,2.62295c-4.05645,-1.34136 -7.17992,-1.34717 -11.21977,-0.02075c-2.83047,0.92882 -4.33867,1.09068 -6.15398,0.66072z"/>
   <path stroke="null" id="svg_4" fill="#3ddc84" d="m67.43551,45.38832c-0.30629,-0.62586 -0.04399,-1.37539 0.58103,-1.68168c0.62503,-0.30629 1.37539,-0.04399 1.68168,0.58103c0.30629,0.62503 0.04399,1.37539 -0.58103,1.68168c-0.62503,0.30629 -1.37539,0.04399 -1.68168,-0.58103zm6.08177,12.50054c-0.30629,-0.62503 -0.04399,-1.37539 0.58103,-1.68168c0.62503,-0.30629 1.37539,-0.04316 1.68168,0.58186c0.30629,0.62503 0.04399,1.37456 -0.58103,1.68085s-1.37539,0.04399 -1.68168,-0.58103zm0.53123,-16.21998c-4.00001,-2.8562 -9.21935,-3.59411 -14.05107,-1.72484l13.20691,27.15754c4.45072,-2.64371 7.08862,-7.21229 7.31356,-12.11954l5.01267,0.35692a0.52023,0.52023 0 0 0 0.55613,-0.48807a0.5194,0.5194 0 0 0 -0.48724,-0.55613l-5.07575,-0.36273c-0.0498,-2.13738 -0.56194,-4.31874 -1.58124,-6.41877c-1.01847,-2.09421 -2.41876,-3.84396 -4.0689,-5.2069l2.85039,-4.21914a0.52189,0.52189 0 0 0 -0.86242,-0.58767l-2.81304,4.16353"/>
   <path stroke="null" id="svg_5" fill="#4285f4" d="m61.87252,51.89424c-3.72526,1.80038 -7.73191,2.7126 -11.90705,2.7126a27.39825,27.39825 0 0 1 -22.93259,-12.3752c-0.39344,-0.60013 -1.20606,-0.74372 -1.7871,-0.31874l-4.79436,3.53103c-0.54368,0.40008 -0.66902,1.1629 -0.28803,1.72567a35.84794,35.84794 0 0 0 29.80207,15.88797c5.45674,0 10.70099,-1.19361 15.58251,-3.55012l-3.67546,-7.61321zm-14.54412,-30.04528l5.18781,0l0,-5.73149c0,-1.43183 -1.1629,-2.5939 -2.5939,-2.5939c-1.43183,0 -2.5939,1.16207 -2.5939,2.5939l0,5.73149z"/>
   <path stroke="null" id="svg_6" fill="#4285f4" d="m43.17152,33.03719l-17.83277,36.70227a6.08135,6.08135 0 0 0 -0.61258,2.53746l-0.10625,4.80681c-0.0249,1.24424 1.41274,1.94397 2.3756,1.15626l3.71281,-3.05043a6.08903,6.08903 0 0 0 1.6186,-2.04939l17.57628,-36.18432l-6.72589,-3.91285l-0.00581,-0.00581zm31.9519,39.23392c-0.01826,-0.88151 -0.23075,-1.74393 -0.61258,-2.53746l-17.83194,-36.7031l-6.72589,3.9253l17.57628,36.17104a6.1517,6.1517 0 0 0 1.6186,2.05022l3.71281,3.05043c0.96286,0.78772 2.40631,0.08716 2.3756,-1.15626l-0.10625,-4.80681l-0.00664,0.00664z"/>
   <path stroke="null" id="svg_7" fill="#073042" d="m49.92148,21.39243c-4.29384,0 -7.78171,3.49451 -7.78171,7.78171c0,4.28803 3.49451,7.78171 7.78171,7.78171c4.28803,0 7.78171,-3.49368 7.78171,-7.78171c0,-4.2872 -3.49368,-7.78171 -7.78171,-7.78171zm0,12.0631c-2.35568,0 -4.28139,-1.91824 -4.28139,-4.28139c0,-2.36232 1.91907,-4.28139 4.28139,-4.28139c2.36315,0 4.28222,1.91907 4.28222,4.28139c0,2.36315 -1.91907,4.28139 -4.28222,4.28139z"/>
  </g>
 </g>
</svg>