<svg width="100" height="100" xmlns="http://www.w3.org/2000/svg" fill="none">

 <g>
  <title>Layer 1</title>
  <g stroke="null" id="svg_6">
   <path stroke="null" id="svg_1" stroke-width="0.25" d="m93.80447,29.71412c-0.00063,-1.65577 -0.35472,-3.11894 -1.07086,-4.37473c-0.70345,-1.23479 -1.75696,-2.26975 -3.17006,-3.08801c-11.66436,-6.72577 -23.34008,-13.43092 -35.00058,-20.16348c-3.14366,-1.81488 -6.19166,-1.74871 -9.31198,0.09219c-4.64279,2.73807 -27.88753,16.05547 -34.81411,20.06752c-2.85264,1.65137 -4.24067,4.17861 -4.24139,7.46345c-0.00444,13.52588 0,27.05137 -0.00444,40.57754c0,1.61952 0.33976,3.0542 1.02435,4.29113c0.70378,1.27209 1.77201,2.33554 3.21771,3.17237c6.92687,4.012 30.1748,17.32836 34.81649,20.06714c3.12166,1.84199 6.1697,1.90778 9.31428,0.09227c11.66092,-6.73298 23.33735,-13.43775 35.00343,-20.16352c1.44557,-0.83649 2.51384,-1.90057 3.21762,-3.17174c0.68367,-1.23689 1.02402,-2.67161 1.02402,-4.29142c0,0 0,-27.0445 -0.00448,-40.57071z" fill="#649ad2"/>
   <path stroke="null" id="svg_2" stroke-width="0.25" d="m50.1343,49.868l-42.91865,24.71169c0.70378,1.27213 1.77201,2.33554 3.21766,3.17237c6.92699,4.01204 30.17475,17.3284 34.81649,20.06714c3.12166,1.84203 6.1697,1.90782 9.31441,0.09232c11.66092,-6.73298 23.33723,-13.43779 35.0033,-20.16352c1.4457,-0.83654 2.51392,-1.90057 3.21771,-3.17174l-42.65093,-24.70825z" fill="#004482"/>
   <path stroke="null" id="svg_3" stroke-width="0.25" d="m37.42137,57.18784c2.49737,4.35993 7.19225,7.30065 12.57787,7.30065c5.41898,0 10.14055,-2.97801 12.62535,-7.38467l-12.49126,-7.23583l-12.71197,7.31985z" fill="#1a4674"/>
   <path stroke="null" id="svg_4" stroke-width="0.25" d="m93.80426,29.71441c-0.00063,-1.65572 -0.35485,-3.11894 -1.07099,-4.37468l-42.59951,24.52857l42.65097,24.70825c0.68354,-1.23689 1.0233,-2.67161 1.02406,-4.29142c0,0 0,-27.0445 -0.00453,-40.57071z" fill="#01589c"/>
   <path stroke="null" id="svg_5" stroke-width="0.25" d="m91.4595,51.63414l-3.33286,0l0,3.33353l-3.33361,0l0,-3.33353l-3.33252,0l0,-3.33252l3.33257,0l0,-3.33286l3.33357,0l0,3.33286l3.33286,0l0,3.33252zm-41.45929,-30.73082c10.65614,0 19.9734,5.72937 25.04277,14.27491l0.1522,0.25981l-12.66399,7.2924c-2.50978,-4.31531 -7.17989,-7.2194 -12.53098,-7.2194c-8.00171,0 -14.48884,6.48679 -14.48884,14.48854c0,2.61672 0.69762,5.06958 1.91084,7.18814c2.4975,4.35993 7.19237,7.3007 12.578,7.3007c5.35935,0 10.03671,-2.91298 12.54259,-7.23993l0.08268,-0.14465l12.64513,7.32634c-5.01364,8.7606 -14.4528,14.66597 -25.2704,14.66597c-10.79769,0 -20.22206,-5.88169 -25.24295,-14.6166c-2.45119,-4.26431 -3.8536,-9.20805 -3.8536,-14.47995c0,-16.06926 13.02667,-29.09626 29.09656,-29.09626zm25.96526,24.06544l0,3.33286l3.33257,0l0,3.33252l-3.33257,0l0,3.33353l-3.33286,0l0,-3.33353l-3.33286,0l0,-3.33252l3.33286,0l0,-3.33286l3.33286,0z" fill="#ffffff"/>
  </g>
 </g>
</svg>