<svg width="100" height="100" xmlns="http://www.w3.org/2000/svg" fill="none">

 <g>
  <title>Layer 1</title>
  <g stroke="null" id="svg_8">
   <path stroke="null" id="svg_1" fill="#9a4993" d="m93.54833,29.79044c0,-1.63671 -0.34879,-3.11247 -1.07328,-4.34681c-0.69759,-1.23423 -1.74408,-2.25382 -3.13926,-3.05878c-11.59147,-6.68123 -23.20972,-13.36234 -34.80119,-20.04356c-3.13937,-1.79777 -6.14458,-1.74408 -9.25706,0.08047c-4.61513,2.71011 -27.74438,15.96507 -34.61334,19.96309c-2.84427,1.63671 -4.21265,4.15897 -4.21265,7.4325l0,40.35533c0,1.60992 0.34879,3.032 1.01959,4.26634c0.6977,1.26113 1.77098,2.33441 3.19306,3.16616c6.89586,3.99802 29.9982,17.2262 34.61334,19.96309c3.11247,1.82421 6.14447,1.90468 9.25706,0.08047c11.59147,-6.70801 23.20972,-13.36234 34.80119,-20.04356c1.44886,-0.83175 2.49536,-1.87824 3.19294,-3.16616c0.6708,-1.23434 1.01959,-2.65642 1.01959,-4.26634l0,-40.38223z"/>
   <path stroke="null" id="svg_2" fill="#6a1577" d="m50.10732,49.834l-42.68985,24.57811c0.6977,1.26113 1.77098,2.33441 3.19306,3.16627c6.89586,3.99791 29.9982,17.22608 34.61334,19.96297c3.11247,1.82467 6.14458,1.90514 9.25706,0.08047c11.59147,-6.70801 23.20972,-13.36234 34.80119,-20.04345c1.44886,-0.83186 2.49536,-1.87824 3.19294,-3.16627l-42.36773,-24.57811z"/>
   <path stroke="null" id="svg_3" fill="#6a1577" d="m37.46935,57.10544c2.49547,4.34681 7.16418,7.27155 12.5038,7.27155c5.3932,0 10.0888,-2.95153 12.55737,-7.35203l-12.42321,-7.19097l-12.63796,7.27144z"/>
   <path stroke="null" id="svg_4" fill="#813084" d="m93.54845,29.79044c0,-1.63671 -0.34891,-3.11247 -1.07328,-4.34681l-42.36785,24.39038l42.42142,24.57822c0.6708,-1.23434 1.01971,-2.65642 1.01971,-4.26634l0,-40.35544z"/>
   <g stroke="null" id="svg_5" fill="#fff">
    <path stroke="null" id="svg_6" d="m62.53053,57.02497c-2.46846,4.3736 -7.16406,7.35203 -12.55737,7.35203c-5.36641,0 -10.03512,-2.92474 -12.50369,-7.27155c-1.20744,-2.11966 -1.90514,-4.53455 -1.90514,-7.13728c0,-7.96914 6.43969,-14.40883 14.40883,-14.40883c5.31272,0 9.95476,2.89784 12.45012,7.19097l12.58416,-7.24465c-5.0175,-8.63983 -14.35514,-14.4624 -25.06106,-14.4624c-15.99197,0 -28.92492,12.95986 -28.92492,28.92492c0,5.23225 1.39517,10.16939 3.83696,14.40883c4.99071,8.66673 14.38193,14.51609 25.11475,14.51609c10.75972,0 20.15094,-5.87615 25.14165,-14.59656l-12.58428,-7.27155zm15.91138,-13.89898l-2.87105,0l0,13.87219l2.87105,0l0,-13.87219zm6.35922,0l-2.87105,0l0,13.87219l2.87105,0l0,-13.87219z"/>
    <path stroke="null" id="svg_7" d="m87.13554,45.4604l-13.87219,0l0,2.87105l13.87219,0l0,-2.87105zm0,6.33232l-13.87219,0l0,2.87105l13.87219,0l0,-2.87105z"/>
   </g>
  </g>
 </g>
</svg>