<svg width="100.00000000000001" height="100.00000000000001" xmlns="http://www.w3.org/2000/svg">

 <g>
  <title>Layer 1</title>
  <g stroke="null" id="svg_5">
   <path stroke="null" id="svg_1" d="m14.70352,89.15334l-7.85384,-88.09048l86.30064,0l-7.86225,88.07653l-35.34083,9.79775l-35.24372,-9.7838z" fill="#264de4"/>
   <path stroke="null" id="svg_2" d="m78.55711,83.53112l6.71892,-75.2657l-35.27603,0l0,83.18281l28.55711,-7.91711z" fill="#2965f1"/>
   <path stroke="null" id="svg_3" d="m24.85472,40.93707l0.96823,10.80383l24.17705,0l0,-10.80383l-25.14528,0zm-0.96364,-11.06343l26.10892,0l0,-10.80402l-27.0911,0l0.98218,10.80402zm26.10892,39.12237l-0.04741,0.01262l-12.03242,-3.24897l-0.76904,-8.61676l-10.84569,0l1.5138,16.96379l22.13106,6.1439l0.0497,-0.01395l0,-11.24063z" fill="#ebebeb"/>
   <path stroke="null" id="svg_4" d="m49.96272,40.93707l0,10.80383l13.30383,0l-1.25401,14.01189l-12.04981,3.25222l0,11.24025l22.14864,-6.13855l0.16249,-1.82539l2.53861,-28.44318l0.2638,-2.90105l1.95041,-21.86745l-27.06396,0l0,10.80402l15.22385,0l-0.98333,11.06343l-14.24052,0z" fill="#fff"/>
  </g>
 </g>
</svg>