<svg width="100" height="100" xmlns="http://www.w3.org/2000/svg" fill="none">

 <g>
  <title>Layer 1</title>
  <g stroke="null" id="svg_10">
   <path stroke="null" id="svg_1" d="m21.04245,78.95713l-16.73302,-16.73302c-1.98466,-2.03496 -3.21429,-4.91129 -3.21429,-7.72289c0,-1.30159 0.73347,-3.33655 1.28715,-4.50153l15.44587,-32.17163l3.21429,61.12907z" fill="#01579b"/>
   <path stroke="null" id="svg_2" d="m78.317,21.04256l-16.73302,-16.73302c-1.45975,-1.46692 -4.50142,-3.21429 -7.07579,-3.21429c-2.21476,0 -4.38644,0.44583 -5.78855,1.28715l-30.8846,15.44587l60.48197,3.21429z" fill="#40c4ff"/>
   <path stroke="null" id="svg_3" d="m40.98935,98.90476l40.54184,0l0,-17.37305l-30.24457,-9.65723l-27.67031,9.65723l17.37305,17.37305z" fill="#40c4ff"/>
   <path stroke="null" id="svg_4" d="m17.82837,69.9471c0,5.16299 0.64721,6.42858 3.21429,9.01003l2.57437,2.57437l57.91489,0l-28.31034,-32.17173l-35.39321,-31.53171l0,52.11905z" fill="#29b6f6"/>
   <path stroke="null" id="svg_5" d="m69.30749,17.82119l-51.47912,0l63.70354,63.70344l17.37295,0l0,-39.89463l-20.59442,-20.59452c-2.89079,-2.89797 -5.45787,-3.21429 -9.00295,-3.21429z" fill="#01579b"/>
   <path stroke="null" id="svg_6" opacity="0.2" d="m21.68935,79.59716c-2.57426,-2.58155 -3.21429,-5.12709 -3.21429,-9.65005l0,-51.47912l-0.63992,-0.63992l0,52.11905c-0.00718,4.52296 -0.00718,5.7742 3.85422,9.65005z" fill="#ffffff"/>
   <path stroke="null" id="svg_7" opacity="0.2" d="m98.26452,40.98966l0,39.89463l-17.37295,0l0.63992,0.64721l17.37305,0l0,-39.90191l-0.64003,-0.63992z" fill="#263238"/>
   <path stroke="null" id="svg_8" opacity="0.2" d="m78.317,21.04235c-3.19275,-3.19275 -5.80302,-3.21429 -9.65005,-3.21429l-50.83192,0l0.63992,0.63992l50.19199,0c1.91988,0 6.76655,-0.3236 9.65005,2.57437z" fill="#ffffff"/>
  </g>
 </g>
</svg>