<svg width="100" height="100" xmlns="http://www.w3.org/2000/svg" xml:space="preserve" version="1.1">

 <g>
  <title>Layer 1</title>
  <g stroke="null" id="svg_1">
   <path stroke="null" id="svg_2" fill="#F05133" d="m97.73303,45.57549l-43.31659,-43.30852c-2.49484,-2.49484 -6.53988,-2.49484 -9.03472,0l-8.99435,8.99435l11.40845,11.40845c2.65632,-0.89621 5.69212,-0.29874 7.80748,1.81663c2.12344,2.12344 2.72091,5.19153 1.80048,7.85593l10.99668,10.99668c2.66439,-0.92043 5.73249,-0.32296 7.85593,1.80048c2.9712,2.9712 2.9712,7.78326 0,10.74639c-2.9712,2.9712 -7.78326,2.9712 -10.75446,0c-2.23648,-2.23648 -2.7855,-5.51449 -1.65515,-8.2677l-10.25388,-10.25388l0,26.99112c0.72665,0.35525 1.40486,0.83969 2.01041,1.43716c2.9712,2.9712 2.9712,7.78326 0,10.75446c-2.9712,2.9712 -7.78326,2.9712 -10.74639,0c-2.9712,-2.9712 -2.9712,-7.78326 0,-10.75446c0.73473,-0.73473 1.58249,-1.28375 2.48677,-1.65515l0,-27.24141c-0.90428,-0.3714 -1.75204,-0.92043 -2.48677,-1.65515c-2.25262,-2.24455 -2.79358,-5.54678 -1.63901,-8.30807l-11.25505,-11.25505l-29.69589,29.70396c-2.49484,2.49484 -2.49484,6.53988 0,9.03472l43.31659,43.31659c2.49484,2.49484 6.53988,2.49484 9.03472,0l43.11475,-43.10667c2.49484,-2.50292 2.49484,-6.54795 0,-9.05087l0,0l0,0zm0,0l0,0l0,0l0,0z" class="st0"/>
  </g>
 </g>
</svg>