<svg width="100" height="100" xmlns="http://www.w3.org/2000/svg" clip-rule="evenodd" fill-rule="evenodd" image-rendering="optimizeQuality" text-rendering="geometricPrecision" shape-rendering="geometricPrecision">

 <g>
  <title>Layer 1</title>
  <path stroke="null" id="svg_1" d="m49.99725,2.31112c-27.00572,0 -48.90635,21.89696 -48.90635,48.90619c0,21.61008 14.01189,39.93628 33.44494,46.40622c2.44602,0.45301 3.34501,-1.06329 3.34501,-2.35585c0,-1.16615 -0.04876,-5.01844 -0.06862,-9.10181c-13.60748,2.95879 -16.47594,-5.773 -16.47594,-5.773c-2.2241,-5.65394 -5.43018,-7.15756 -5.43018,-7.15756c-4.43719,-3.03827 0.33762,-2.97148 0.33762,-2.97148c4.91008,0.34312 7.49518,5.03663 7.49518,5.03663c4.36506,7.47714 11.44497,5.31265 14.23396,4.06519c0.44048,-3.16084 1.70414,-5.31983 3.10491,-6.54193c-10.86373,-1.23294 -22.28333,-5.4282 -22.28333,-24.16981c0,-5.33802 1.91353,-9.70292 5.03831,-13.12573c-0.50895,-1.23463 -2.18421,-6.20614 0.4712,-12.94141c0,0 4.10676,-1.31594 13.45418,5.01309c3.8992,-1.08133 8.08177,-1.6265 12.2356,-1.64454c4.1572,0.01803 8.3471,0.56137 12.2518,1.64454c9.33474,-6.32536 13.43783,-5.01309 13.43783,-5.01309c2.65908,6.7371 0.99115,11.71213 0.48205,12.94156c3.13563,3.42266 5.03296,7.78756 5.03296,13.12558c0,18.78487 -11.44497,22.91501 -22.33224,24.1264c1.75473,1.51631 3.32163,4.49313 3.32163,9.05306c0,6.54025 -0.05594,11.81133 -0.05594,13.41979c0,1.30157 0.88096,2.82338 3.36121,2.34668c19.42205,-6.4733 33.41606,-24.80164 33.41606,-46.39888c0,-27.00572 -21.89696,-48.90635 -48.90818,-48.90635l-0.00352,0.01635l-0.00015,0.00015z"/>
 </g>
</svg>