<svg width="100" height="100" xmlns="http://www.w3.org/2000/svg">

 <g>
  <title>Layer 1</title>
  <g stroke="null" id="svg_9">
   <path stroke="null" id="svg_1" fill="#fff" d="m93.23522,66.85016s-0.14363,-0.88121 -0.22759,-0.87325l-15.98987,1.54277c-1.27231,0.12286 -2.26047,1.13752 -2.34974,2.41249l-0.43928,6.29616l-12.37047,0.88253l-0.84143,-5.70619c-0.18738,-1.26922 -1.29574,-2.226 -2.57866,-2.226l-16.87638,0c-1.28248,0 -2.39084,0.95678 -2.57821,2.226l-0.84187,5.70619l-12.37047,-0.88253l-0.43928,-6.29616c-0.08927,-1.27541 -1.07742,-2.29008 -2.34974,-2.41293l-15.99783,-1.54233c-0.08264,-0.00795 -0.14318,0.87414 -0.22583,0.87414l-0.02165,3.4603l13.54866,2.1849l0.4437,6.35229c0.08971,1.28601 1.12736,2.32587 2.41426,2.41823l17.0368,1.2153c0.06452,0.00442 0.12816,0.00707 0.1918,0.00707c1.28027,0 2.38686,-0.95722 2.57424,-2.22644l0.86574,-5.87147l12.37622,0l0.86574,5.87147c0.18694,1.26878 1.29485,2.226 2.57689,2.226c0.06275,0 0.12551,-0.00221 0.18694,-0.00663l17.03901,-1.2153c1.28646,-0.09236 2.32455,-1.13222 2.41426,-2.41823l0.44325,-6.35229l13.54291,-2.19462l-0.0221,-3.45146z"/>
   <path stroke="null" id="svg_2" fill="#478cbf" d="m6.75836,40.75822l0,20.99781l0,2.66704l0,2.42707c0.04773,0.00044 0.09546,0.00221 0.14274,0.00663l15.99606,1.54233c0.8379,0.08087 1.4946,0.75526 1.55294,1.59492l0.49319,7.06114l13.95346,0.99567l0.9612,-6.51713c0.12462,-0.84497 0.84939,-1.47118 1.70408,-1.47118l16.87638,0c0.85425,0 1.57901,0.62621 1.70364,1.47118l0.9612,6.51713l13.95391,-0.99567l0.49275,-7.06114c0.05878,-0.83966 0.71504,-1.51361 1.55294,-1.59492l15.98987,-1.54233c0.04729,-0.00442 0.09457,-0.00619 0.1423,-0.00663l0,-2.08193l0.00663,-0.00221l0,-24.00779c2.25248,-2.83562 4.38536,-5.96348 6.01951,-8.59508c-2.49734,-4.25136 -5.55726,-8.05062 -8.82797,-11.57058c-3.0334,1.52686 -5.97974,3.25657 -8.76257,5.09721c-1.39252,-1.38412 -2.96092,-2.51634 -4.50149,-3.69983c-1.51361,-1.21575 -3.21945,-2.10712 -4.83735,-3.14565c0.4817,-3.58714 0.7199,-7.11859 0.8158,-10.80428c-4.17446,-2.10093 -8.62601,-3.49389 -13.12882,-4.49442c-1.79777,3.02147 -3.44174,6.29351 -4.87359,9.49219c-1.69789,-0.28372 -3.40374,-0.3889 -5.11179,-0.40923l0,-0.00265c-0.01193,0 -0.02298,0.00265 -0.03314,0.00265c-0.01061,0 -0.02165,-0.00265 -0.03226,-0.00265l0,0.00265c-1.71115,0.02033 -3.41567,0.12551 -5.114,0.40923c-1.43097,-3.19868 -3.07406,-6.47072 -4.87448,-9.49219c-4.5006,1.00053 -8.9526,2.39349 -13.12661,4.49442c0.09546,3.68569 0.33366,7.21714 0.81668,10.80428c-1.621,1.03853 -3.32463,1.9299 -4.83868,3.14565c-1.53835,1.18349 -3.10941,2.31571 -4.50237,3.69983c-2.78283,-1.84063 -5.72828,-3.57034 -8.76257,-5.09721c-3.27072,3.51996 -6.32886,7.31923 -8.82709,11.57058c1.96334,3.08188 4.06927,6.17944 6.01951,8.59508z"/>
   <path stroke="null" id="svg_3" fill="#478cbf" d="m78.88481,71.68826l-0.4954,7.0987c-0.05966,0.85557 -0.74023,1.53659 -1.59581,1.59801l-17.03857,1.21575c-0.04154,0.00309 -0.08308,0.00442 -0.12418,0.00442c-0.84674,0 -1.57724,-0.62135 -1.70231,-1.47162l-0.9771,-6.62628l-13.90264,0l-0.9771,6.62628c-0.13125,0.89181 -0.92849,1.53305 -1.82649,1.4672l-17.03857,-1.21575c-0.85557,-0.06143 -1.53614,-0.74244 -1.59581,-1.59801l-0.4954,-7.0987l-14.38346,-1.38677c0.00663,1.54587 0.02652,3.23934 0.02652,3.57653c0,15.19086 19.27031,22.49241 43.21225,22.57638l0.02917,0l0.02961,0c23.94194,-0.08397 43.20562,-7.38552 43.20562,-22.57638c0,-0.34338 0.02077,-2.02978 0.02784,-3.57653l-14.37816,1.38677z"/>
   <path stroke="null" id="svg_4" fill="#fff" d="m36.96436,51.3498c0,5.32613 -4.31544,9.64068 -9.6398,9.64068c-5.32171,0 -9.63847,-4.31455 -9.63847,-9.64068c0,-5.32259 4.31676,-9.63493 9.63847,-9.63493c5.32436,0 9.6398,4.31234 9.6398,9.63493"/>
   <path stroke="null" id="svg_5" fill="#414042" d="m34.64484,51.92158c0,3.53278 -2.86326,6.39604 -6.39869,6.39604c-3.53366,0 -6.39869,-2.86326 -6.39869,-6.39604s2.86503,-6.39869 6.39869,-6.39869c3.53543,0 6.39869,2.86591 6.39869,6.39869"/>
   <path stroke="null" id="svg_6" fill="#fff" d="m49.9993,61.86753c-1.7138,0 -3.10278,-1.26303 -3.10278,-2.81995l0,-8.87437c0,-1.55559 1.38898,-2.81995 3.10278,-2.81995s3.10588,1.26436 3.10588,2.81995l0,8.87437c0,1.55692 -1.39208,2.81995 -3.10588,2.81995"/>
   <path stroke="null" id="svg_7" fill="#fff" d="m63.03584,51.3498c0,5.32613 4.31544,9.64068 9.64068,9.64068c5.32127,0 9.63759,-4.31455 9.63759,-9.64068c0,-5.32259 -4.31632,-9.63493 -9.63759,-9.63493c-5.32524,0 -9.64068,4.31234 -9.64068,9.63493"/>
   <path stroke="null" id="svg_8" fill="#414042" d="m65.35595,51.92158c0,3.53278 2.86237,6.39604 6.39515,6.39604c3.53632,0 6.39869,-2.86326 6.39869,-6.39604s-2.86237,-6.39869 -6.39869,-6.39869c-3.53278,0 -6.39515,2.86591 -6.39515,6.39869"/>
  </g>
 </g>
</svg>