<svg width="100" height="100" xmlns="http://www.w3.org/2000/svg" fill="none">
 <g>
  <title>Layer 1</title>
  <g stroke="null" id="svg_11">
   <path stroke="null" fill="#e44d26" d="m93.68165,0.5199l-7.95897,89.16122l-35.77615,9.91834l-35.67749,-9.90444l-7.9507,-89.17512l87.36333,0l-0.00001,0z" stroke-width="1.0417" id="svg_1"/>
   <path stroke="null" fill="#f16529" d="m49.99874,92.0183l28.90889,-8.01459l6.80153,-76.19242l-35.71042,0l0,84.20702l0,-0.00001z" stroke-width="1.0417" id="svg_2"/>
   <path stroke="null" fill="#ebebeb" d="m34.52827,29.6854l15.47204,0l0,-10.937l-27.4248,0l0.26184,2.93421l2.68811,30.13928l24.47486,0l0,-10.93687l-14.47256,0l-0.99948,-11.19962l-0.00001,0z" stroke-width="1.0417" id="svg_3"/>
   <path stroke="null" fill="#ebebeb" d="m36.99178,57.29059l-10.9791,0l1.53237,17.17259l22.40358,6.21946l0.05024,-0.01404l0,-11.37908l-0.04788,0.01286l-12.18063,-3.28906l-0.77858,-8.72273z" stroke-width="1.0417" id="svg_4"/>
   <path stroke="null" fill="#ffffff" d="m49.96293,51.82202l13.46767,0l-1.26947,14.18434l-12.19821,3.29248l0,11.37856l22.42143,-6.21408l0.1645,-1.84787l2.57004,-28.79345l0.26684,-2.93683l-25.4228,0l0,10.93685l-0.00001,0z" stroke-width="1.0417" id="svg_9"/>
   <path stroke="null" fill="#ffffff" d="m49.96293,29.65878l0,0.02662l26.41796,0l0.21948,-2.45827l0.49823,-5.54451l0.26158,-2.93421l-27.39726,0l0,10.91037z" stroke-width="1.0417" id="svg_10"/>
  </g>
 </g>

</svg>