<svg width="100" height="100" xmlns="http://www.w3.org/2000/svg" fill="none">

 <g>
  <title>Layer 1</title>
  <path id="svg_1" stroke-width="1.0417" d="m1.04167,1.04167l97.91666,0l0,97.91666l-97.91666,0l0,-97.91666z" fill="#f7df1e"/>
  <path id="svg_2" stroke-width="1.0417" d="m26.78802,82.86792l7.49323,-4.53479c1.44562,2.56312 2.76062,4.73166 5.9149,4.73166c3.02364,0 4.92989,-1.18271 4.92989,-5.78323l0,-31.28677l9.20167,0l0,31.41688c0,9.53052 -5.58646,13.86854 -13.73708,13.86854c-7.36094,0 -11.63386,-3.8124 -13.80282,-8.41313" fill="#000000"/>
  <path id="svg_3" stroke-width="1.0417" d="m59.3251,81.88198l7.4924,-4.33802c1.97229,3.22094 4.53573,5.58698 9.07063,5.58698c3.8127,0 6.24395,-1.90625 6.24395,-4.53542c0,-3.15489 -2.4975,-4.27239 -6.70416,-6.11219l-2.29979,-0.98656c-6.63886,-2.82583 -11.04282,-6.375 -11.04282,-13.86812c0,-6.90146 5.25813,-12.1599 13.47438,-12.1599c5.84989,0 10.05635,2.03781 13.07958,7.36177l-7.16448,4.60073c-1.5775,-2.82604 -3.28594,-3.94323 -5.91489,-3.94323c-2.6949,0 -4.40396,1.70886 -4.40396,3.94323c0,2.76063 1.70906,3.87823 5.65229,5.58729l2.30031,0.98584c7.82167,3.35239 12.22552,6.76979 12.22552,14.45968c0,8.28219 -6.50687,12.81698 -15.24854,12.81698c-8.54458,0 -14.06594,-4.07489 -16.76042,-9.39906z" fill="#000000"/>
 </g>
</svg>