<?xml version="1.0" encoding="UTF-8" standalone="no" ?>
<!DOCTYPE svg PUBLIC "-//W3C//DTD SVG 1.1//EN" "http://www.w3.org/Graphics/SVG/1.1/DTD/svg11.dtd">
<svg xmlns="http://www.w3.org/2000/svg" xmlns:xlink="http://www.w3.org/1999/xlink" version="1.1" width="1080" height="1080" viewBox="0 0 1080 1080" xml:space="preserve">
<desc>Created with Fabric.js 5.2.4</desc>
<defs>
</defs>
<g transform="matrix(1 0 0 1 540 540)" id="f9fff245-1d77-4cb2-8173-abc0b424cb0e"  >
<rect style="stroke: none; stroke-width: 1; stroke-dasharray: none; stroke-linecap: butt; stroke-dashoffset: 0; stroke-linejoin: miter; stroke-miterlimit: 4; fill: rgb(255,255,255); fill-rule: nonzero; opacity: 1; visibility: hidden;" vector-effect="non-scaling-stroke"  x="-540" y="-540" rx="0" ry="0" width="1080" height="1080" />
</g>
<g transform="matrix(1 0 0 1 540 540)" id="7dc29042-c66b-438d-a4fc-dcfab4466bce"  >
</g>
<g transform="matrix(5.14 0 0 5.14 540 540)"  >
<g style="" vector-effect="non-scaling-stroke"   >
		<g transform="matrix(0.21 0 0 0.21 0 0)" id="circle4"  >
<circle style="stroke: none; stroke-width: 1; stroke-dasharray: none; stroke-linecap: butt; stroke-dashoffset: 0; stroke-linejoin: miter; stroke-miterlimit: 4; fill: rgb(72,185,199); fill-rule: nonzero; opacity: 1;" vector-effect="non-scaling-stroke"  cx="0" cy="0" r="473" />
</g>
		<g transform="matrix(0.21 0 0 0.21 0 61.42)" id="rect6"  >
<path style="stroke: none; stroke-width: 1; stroke-dasharray: none; stroke-linecap: butt; stroke-dashoffset: 0; stroke-linejoin: miter; stroke-miterlimit: 4; fill: rgb(255,255,255); fill-rule: nonzero; opacity: 1;" vector-effect="non-scaling-stroke"  transform=" translate(-449.4, -740.9)" d="M 236.4 702.4 L 662.4 702.4 C 682.8 702.4 699.4 719 699.4 739.4 L 699.4 742.4 C 699.4 762.8 682.8 779.4 662.4 779.4 L 236.39999999999998 779.4 C 215.99999999999997 779.4 199.39999999999998 762.8 199.39999999999998 742.4 L 199.39999999999998 739.4 C 199.4 718.9 215.9 702.4 236.4 702.4 z" stroke-linecap="round" />
</g>
		<g transform="matrix(0.21 0 0 0.21 -22.51 -15.75)" id="path10"  >
<path style="stroke: none; stroke-width: 1; stroke-dasharray: none; stroke-linecap: butt; stroke-dashoffset: 0; stroke-linejoin: miter; stroke-miterlimit: 4; fill: rgb(255,255,255); fill-rule: nonzero; opacity: 1;" vector-effect="non-scaling-stroke"  transform=" translate(-342.91, -375.89)" d="M 512.4 333.4 C 488.4 384.4 448.4 425.4 392.4 445.4 L 440.4 570.4 C 449.4 593.4 457.4 617.4 450.4 639.4 C 443.4 661.4 411.4 668.4 388.4 644.4 C 344.4 597.4 196.39999999999998 301.4 185.39999999999998 279.4 C 174.39999999999998 257.4 162.39999999999998 239.39999999999998 162.39999999999998 217.39999999999998 C 163.39999999999998 184.39999999999998 214.39999999999998 150.39999999999998 239.39999999999998 133.39999999999998 C 264.4 116.39999999999998 313.4 93.39999999999998 356.4 92.39999999999998 C 399.4 91.39999999999998 417.4 101.39999999999998 442.4 117.39999999999998 C 480.4 142.39999999999998 507.4 181.39999999999998 517.4 226.39999999999998 C 527.4 271.4 524.4 306.4 512.4 331.4 M 399.4 277.4 C 390.4 246.39999999999998 371.4 216.39999999999998 346.4 196.39999999999998 C 341.4 192.39999999999998 335.4 187.39999999999998 328.4 185.39999999999998 C 282.4 170.39999999999998 302.4 247.39999999999998 309.4 267.4 C 316.4 287.4 335.4 329.4 356.4 350.4 C 361.4 355.4 366.4 359.4 372.4 360.4 C 378.4 361.4 390.4 355.4 395.4 347.4 C 400.4 339.4 401.4 333.4 401.4 325.4 C 403.7 309.4 403 293.1 399.4 277.4 z" stroke-linecap="round" />
</g>
		<g transform="matrix(0.21 0 0 0.21 25.49 37.72)" id="path12"  >
<path style="stroke: none; stroke-width: 1; stroke-dasharray: none; stroke-linecap: butt; stroke-dashoffset: 0; stroke-linejoin: miter; stroke-miterlimit: 4; fill: rgb(255,255,255); fill-rule: nonzero; opacity: 1;" vector-effect="non-scaling-stroke"  transform=" translate(-569.99, -628.8)" d="M 601.4 640.4 C 599.4 649.4 594.4 657.4 586.4 662.4 C 578.4 667.4 559.4 667.4 548.4 658.4 C 537.4 649.4 535.4 634.4 538.4 622.4 C 541.4 610.4 551.4 597.4 565.4 593.4 C 594.4 584.4 607.4 616.4 601.4 640.4 z" stroke-linecap="round" />
</g>
		<g transform="matrix(0.21 0 0 0.21 41.88 -9.16)" id="path14"  >
<path style="stroke: none; stroke-width: 1; stroke-dasharray: none; stroke-linecap: butt; stroke-dashoffset: 0; stroke-linejoin: miter; stroke-miterlimit: 4; fill: rgb(255,255,255); fill-rule: nonzero; opacity: 1;" vector-effect="non-scaling-stroke"  transform=" translate(-647.48, -407.1)" d="M 583.4 549.4 C 565.4 542.4 571.4 446.4 588.4 329.4 C 593.4 297.4 601.4 281.4 610.4 273.4 C 619.4 265.4 646.4 261.4 662.4 264.4 C 680.8 267.09999999999997 697.9 275.5 711.4 288.4 C 723.4 299.4 724.4 311.4 720.4 326.4 C 716.4 341.4 702.4 373.4 691.4 396.4 L 663.4 449.4 C 609.4 545.4 598.4 555.4 583.4 549.4 z" stroke-linecap="round" />
</g>
</g>
</g>
</svg>