<svg width="100" height="100" xmlns="http://www.w3.org/2000/svg" preserveAspectRatio="xMidYMid" version="1.1">
 <defs>
  <linearGradient id="linearGradient-1" y2="95.2347418%" x2="71.8761384%" y1="1.92488263%" x1="41.7030965%">
   <stop offset="28%" stop-color="#00CDD7"/>
   <stop offset="94%" stop-color="#2086D7"/>
  </linearGradient>
  <linearGradient id="linearGradient-2" y2="84.7627119%" x2="82.8771552%" y1="15.1271186%" x1="22.4892241%">
   <stop offset="14%" stop-color="#FFF045"/>
   <stop offset="37%" stop-color="#00CDD7"/>
  </linearGradient>
  <linearGradient id="linearGradient-3" y2="-28759.6256%" x2="11907%" y1="-27691.7984%" x1="11171%">
   <stop offset="28%" stop-color="#00CDD7"/>
   <stop offset="94%" stop-color="#2086D7"/>
  </linearGradient>
 </defs>
 <g>
  <title>Layer 1</title>
  <g stroke="null" id="svg_1">
   <polygon stroke="null" id="svg_2" points="13.681262969970703,90.04373931884766 0.33335113525390625,10.732304573059082 25.166675567626953,0.48855942487716675 40.84271240234375,9.801055908203125 55.432289123535156,2.040642261505127 85.5427017211914,13.681262969970703 68.62499237060547,99.6666488647461 " fill="url(#linearGradient-1)"/>
   <polygon stroke="null" id="svg_3" points="99.6666488647461,34.013545989990234 86.78436279296875,2.3510587215423584 63.6583251953125,0.33335113525390625 27.650009155273438,34.789588928222656 37.27292251586914,79.33436584472656 55.432289123535156,91.90623474121094 99.6666488647461,65.67603302001953 88.80207061767578,45.34375 " fill="url(#linearGradient-2)"/>
   <polygon stroke="null" id="svg_4" points="79.79998779296875,29.202091217041016 88.80207061767578,45.34375 99.6666488647461,34.013545989990234 91.75102996826172,14.302096366882324 " fill="url(#linearGradient-3)"/>
   <rect stroke="null" id="svg_5" height="62.08331" width="62.08331" y="18.95834" x="18.95834" fill="#000000"/>
   <path stroke="null" id="svg_6" fill="#FFFFFF" d="m24.85626,69.40103l23.28124,0l0,3.88021l-23.28124,0l0,-3.88021zm30.42082,-20.33228l3.25937,-4.03542c2.32812,1.8625 4.65625,3.10417 7.60521,3.10417c2.32812,0 3.725,-0.93125 3.725,-2.48333c0,-1.39687 -0.93125,-2.17292 -5.12187,-3.25937c-5.12187,-1.39687 -8.38125,-2.79375 -8.38125,-7.91562l0,-0.15521c0,-4.65625 3.725,-7.76041 8.84687,-7.76041c3.43351,-0.01444 6.7707,1.13443 9.4677,3.25937l-2.94896,4.34583c-1.87382,-1.46434 -4.14558,-2.32977 -6.51875,-2.48333c-2.01771,0 -3.25937,0.93125 -3.25937,2.32812c0,1.70729 1.08646,2.32812 5.43229,3.41458c5.12187,1.39687 8.07083,3.25937 8.07083,7.76041c0,5.12187 -3.88021,8.07083 -9.3125,8.07083c-3.98744,-0.14658 -7.81152,-1.62159 -10.86458,-4.19062zm-4.96666,-22.03958l-3.88021,14.89999l-4.34583,-14.89999l-4.34583,0l-4.34583,14.89999l-3.88021,-14.89999l-6.05312,0l7.45,25.76457l4.81146,0l4.19062,-14.89999l4.19062,14.89999l4.81146,0l7.45,-25.76457l-6.05312,0z"/>
  </g>
 </g>
</svg>