<?xml version="1.0" encoding="UTF-8" standalone="no" ?>
<!DOCTYPE svg PUBLIC "-//W3C//DTD SVG 1.1//EN" "http://www.w3.org/Graphics/SVG/1.1/DTD/svg11.dtd">
<svg xmlns="http://www.w3.org/2000/svg" xmlns:xlink="http://www.w3.org/1999/xlink" version="1.1" width="800" height="800" viewBox="0 0 800 800" xml:space="preserve">
<desc>Created with Fabric.js 5.2.4</desc>
<defs>
</defs>
<g transform="matrix(1 0 0 1 400 400)" id="e7eca003-616a-43f4-b229-4de428eb89f8"  >
<rect style="stroke: none; stroke-width: 1; stroke-dasharray: none; stroke-linecap: butt; stroke-dashoffset: 0; stroke-linejoin: miter; stroke-miterlimit: 4; fill: rgb(255,255,255); fill-rule: nonzero; opacity: 1; visibility: hidden;" vector-effect="non-scaling-stroke"  x="-400" y="-400" rx="0" ry="0" width="800" height="800" />
</g>
<g transform="matrix(Infinity NaN NaN Infinity 0 0)" id="2831443e-4da5-4a7f-b6c2-5948d9dfb4b5"  >
</g>
<g transform="matrix(0.63 0 0 0.63 400 400)" id="ab5cbce5-5f8c-4939-a636-0b17140d26d8"  >
<path style="stroke: rgb(0,0,0); stroke-width: 0; stroke-dasharray: none; stroke-linecap: butt; stroke-dashoffset: 0; stroke-linejoin: miter; stroke-miterlimit: 4; fill: rgb(255,255,255); fill-rule: nonzero; opacity: 1;" vector-effect="non-scaling-stroke"  transform=" translate(-600, -613.18)" d="M 714.163 519.284 L 1160.89 0 L 1055.03 0 L 667.137 450.887 L 357.328 0 L 0 0 L 468.492 681.821 L 0 1226.37 L 105.866 1226.37 L 515.491 750.218 L 842.672 1226.37 L 1200 1226.37 L 714.137 519.284 L 714.163 519.284 Z M 569.165 687.828 L 521.697 619.934 L 144.011 79.6944 L 306.615 79.6944 L 611.412 515.685 L 658.88 583.579 L 1055.08 1150.3 L 892.476 1150.3 L 569.165 687.854 L 569.165 687.828 Z" stroke-linecap="round" />
</g>
</svg>